<svg xmlns="http://www.w3.org/2000/svg" xmlns:xlink="http://www.w3.org/1999/xlink" xml:space="preserve" style="shape-rendering:geometricPrecision;text-rendering:geometricPrecision;image-rendering:optimizeQuality;" viewBox="0 0 6.82666 8.533325000000001" x="0px" y="0px" fill-rule="evenodd" clip-rule="evenodd"><defs><style type="text/css">
   
    .fil1 {fill:none}
    .fil0 {fill:black;fill-rule:nonzero}
   
  </style></defs><g><g><polygon class="fil0" points="0.906681,2.25034 3.69441,2.25034 3.74774,2.25034 3.74774,2.30367 3.74774,2.66338 3.74774,2.71672 3.69441,2.71672 2.5787,2.71672 2.5787,2.61005 3.64107,2.61005 3.64107,2.35701 0.960016,2.35701 0.960016,2.61005 2.02239,2.61005 2.02239,2.71672 0.906681,2.71672 0.853346,2.71672 0.853346,2.66338 0.853346,2.30367 0.853346,2.25034 "/><path class="fil0" d="M1.17646 2.61005l0.845929 0 0 0.106669 -0.792594 0 0 1.60194 0.802598 0 0 0.0533346 0 0.0533346 -0.855933 0 -0.0533346 0 0 -0.0533346 0 -1.70861 0 -0.0533346 0.0533346 0zm1.40224 0l0.845933 0 0.0533346 0 0 0.0533346 0 1.70861 0 0.0533346 -0.0533346 0 -0.855937 0 0 -0.0533346 0 -0.0533346 0.802602 0 0 -1.60194 -0.792598 0 0 -0.106669z"/><path class="fil0" d="M2.07572 2.25034l0.449638 0 0.0533346 0 0 0.0533346 0 2.06832 0 0.0533346 -0.0533346 0 -0.449638 0 -0.0533346 0 0 -0.0533346 0 -2.06832 0 -0.0533346 0.0533346 0zm0.396303 0.106669l-0.342969 0 0 1.96165 0.342969 0 0 -1.96165z"/><path class="fil0" d="M1.66213 2.25034c-0.188374,-0.0969606 -0.334583,-0.255114 -0.291276,-0.512858 0.0203346,-0.121043 0.076815,-0.203768 0.153201,-0.253776 0.0647717,-0.0424055 0.142929,-0.0601693 0.224713,-0.0570472 0.0790236,0.00301575 0.161602,0.0256024 0.238299,0.0642087 0.143323,0.0721457 0.268083,0.201295 0.312799,0.364386 0.0232205,0.0847047 0.0354882,0.169232 0.0421772,0.252717 0.00376378,0.0469646 0.00576378,0.094689 0.007,0.14237l-0.100764 0c-0.00123622,-0.0439961 -0.00322835,-0.088748 -0.0068937,-0.134476 -0.00631496,-0.0787795 -0.0175906,-0.157461 -0.038622,-0.234165 -0.0366063,-0.133516 -0.140843,-0.240307 -0.261087,-0.300835 -0.0640866,-0.0322598 -0.132181,-0.0510984 -0.196461,-0.0535472 -0.0615157,-0.00235039 -0.119323,0.0103661 -0.165902,0.0408583 -0.0537244,0.0351732 -0.093815,0.0955591 -0.108992,0.185882 -0.049937,0.297228 0.231248,0.433827 0.480091,0.496283l-0.288283 0z"/><path class="fil0" d="M2.65067 2.25034c0.248843,-0.0624567 0.530028,-0.199055 0.480087,-0.496283 -0.0151732,-0.0903228 -0.0552638,-0.150709 -0.10898,-0.185878 -0.0465787,-0.0304921 -0.104382,-0.0432087 -0.165898,-0.0408622 -0.0642756,0.00244882 -0.13237,0.0212835 -0.196457,0.0535394 -0.120252,0.0605236 -0.2245,0.167323 -0.261106,0.300843 -0.0210315,0.0767047 -0.0322992,0.155382 -0.0386142,0.234165 -0.00366142,0.0457283 -0.00566142,0.0904803 -0.0068937,0.134476l-0.10076 0c0.00123228,-0.047685 0.00323228,-0.0954094 0.00699606,-0.14237 0.00668898,-0.0834843 0.0189449,-0.168008 0.0421693,-0.252717 0.0447205,-0.163098 0.169488,-0.292252 0.312819,-0.364394 0.0767008,-0.0386063 0.15928,-0.061185 0.238299,-0.0642008 0.0817795,-0.00311811 0.159929,0.0146417 0.224705,0.0570512 0.0763858,0.0500079 0.132858,0.132732 0.153189,0.253772 0.0433071,0.257744 -0.102902,0.415898 -0.291272,0.512858l-0.288283 0z"/><path class="fil0" d="M4.01158 2.20418l0.946539 0 0.0306772 0 0.0287795 0 0.0158031 0.0241693 0.759677 1.16201 0.00875197 0.0291654 0 0.0247835 0 0.999429 0.0613937 0.000122047 0.00541732 0.000208661 0.015815 0.0013189c0.0742047,0.0061063 0.0805079,0.00662992 0.0877874,0.0933898l0.000208661 0.00437402 0 0.137811c0,0.0119055 0.000216535,0.0167795 0.000385827,0.0206969 0.00117323,0.0268819 0.00175984,0.0406535 -0.0168031,0.0600709l-0.000204724 0c-0.0187283,0.0195709 -0.0327835,0.0196811 -0.0615669,0.0199173 -0.00482677,3.93701e-005 -0.0106496,9.05512e-005 -0.0191102,0.00038189l0 7.87402e-006c-0.116299,0.00409843 -0.421862,0.00579134 -0.753303,0.00635039 -0.00984646,-0.0366929 -0.0233346,-0.072252 -0.040252,-0.106193 0.339961,-0.000488189 0.659465,-0.00211024 0.784185,-0.00622441l0 -0.125252 -0.00601969 -0.000614173 -0.111268 -0.000216535 -0.0533346 -0.000106299 0 -0.0530197 0 -1.05245 0 -0.00900394 -0.735126 -1.12445 -0.0018937 0 -0.946539 0c-0.00613386,0 -0.0117008,0.0024685 -0.0157323,0.00644882l0.000102362 0.000106299c-0.00403937,0.00403937 -0.00655512,0.00958268 -0.00655512,0.015626l0 2.32593c0,0.00608268 0.00243307,0.0116142 0.00636614,0.0156457l0.000169291 0.000169291c0.00402756,0.00392913 0.00956693,0.00636614 0.0156496,0.00636614 0.0331575,0 0.0445,1.9685e-005 0.0490709,5.11811e-005 -0.017063,0.034063 -0.0306654,0.0697677 -0.0405945,0.106618l-0.00847638 0c-0.0353465,0 -0.0675079,-0.0144843 -0.0908386,-0.0378071l-0.000208661 -0.000208661c-0.0233189,-0.0233268 -0.0378071,-0.0554843 -0.0378071,-0.0908346l0 -2.32593c0,-0.0354882 0.0144843,-0.0677205 0.0378071,-0.0910433l0.000208661 0c0.0233307,-0.0233228 0.0554882,-0.0378071 0.0908386,-0.0378071z"/><path class="fil0" d="M4.02006 4.78781l-1.37626 0c-0.00993307,-0.0368661 -0.0235433,-0.0725906 -0.0406142,-0.106669l1.4575 0c-0.0170748,0.0340787 -0.0306811,0.0698031 -0.0406181,0.106669zm-2.47788 0l-0.626803 0 0 -0.106669 0.667421 0c-0.0170748,0.0340787 -0.0306811,0.0698031 -0.0406181,0.106669z"/><path class="fil0" d="M4.25793 2.50624l0.536768 0 0.0282402 0 0.0159252 0.0235433 0.561189 0.82972 0.00291732 0.005c0.000299213,0.000570866 0.107346,0.199866 -0.116693,0.214795 -0.136807,0.00911417 -0.954602,0.00505118 -1.01489,0.00474016 -0.0198346,0.00124803 -0.0987756,-0.00121654 -0.106102,-0.118461 -0.00450787,-0.0722283 -0.000437008,-0.746417 -3.14961e-005,-0.811976 -0.00127559,-0.00850787 -0.00382677,-0.0294961 -0.00230709,-0.0530787 0.00296457,-0.0459488 0.0214134,-0.101752 0.0949882,-0.0942835zm0.508528 0.106713l-0.492787 0 -0.00216929 0c-0.00596457,0.268657 -0.0163583,0.583953 3.14961e-005,0.846374 0.00104331,0.0167087 -0.0110669,0.0187913 -0.0114724,0.0188583l0.00811417 -0.000417323c0.00249213,7.87402e-006 0.869689,0.00469291 1.01102,-0.00472047 0.0517008,-0.00344488 0.0356969,-0.0458071 0.0308031,-0.0565118l-0.543535 -0.803583z"/><path class="fil0" d="M2.09299 4.47277c0.128063,0 0.244012,0.0519213 0.327945,0.135846 0.0839331,0.0839331 0.135846,0.199886 0.135846,0.327949 0,0.128067 -0.0519134,0.24402 -0.135846,0.327945 -0.0839331,0.0839331 -0.199882,0.135846 -0.327945,0.135846 -0.128063,0 -0.244016,-0.0519213 -0.327949,-0.13585 -0.0839252,-0.0839252 -0.135846,-0.199878 -0.135846,-0.327941 0,-0.128063 0.0519213,-0.244016 0.13585,-0.327945 0.0839291,-0.0839291 0.199882,-0.13585 0.327945,-0.13585zm0.252528 0.211264c-0.064622,-0.0646181 -0.153909,-0.104594 -0.252528,-0.104594 -0.0986181,0 -0.187906,0.0399764 -0.252528,0.104598 -0.064622,0.064622 -0.104598,0.153909 -0.104598,0.252528 0,0.0986181 0.0399764,0.187906 0.104594,0.252524 0.064626,0.064622 0.153913,0.104598 0.252531,0.104598 0.0986181,0 0.187906,-0.0399724 0.252528,-0.104594 0.064622,-0.0646181 0.104594,-0.153906 0.104594,-0.252528 0,-0.0986181 -0.0399724,-0.187909 -0.104594,-0.252531z"/><path class="fil0" d="M4.57087 4.47277c0.128063,0 0.244012,0.0519213 0.327945,0.135846 0.0839331,0.0839331 0.135846,0.199886 0.135846,0.327949 0,0.128067 -0.0519134,0.24402 -0.135846,0.327945 -0.0839252,0.0839331 -0.199878,0.135846 -0.327945,0.135846 -0.128067,0 -0.244016,-0.0519134 -0.327949,-0.135846 -0.0839331,-0.0839331 -0.135846,-0.199882 -0.135846,-0.327945 0,-0.128063 0.0519213,-0.244016 0.13585,-0.327945 0.0839252,-0.0839331 0.199882,-0.13585 0.327945,-0.13585zm0.252528 0.211264c-0.064622,-0.0646181 -0.153909,-0.104594 -0.252528,-0.104594 -0.0986181,0 -0.187909,0.0399764 -0.252528,0.104598 -0.064622,0.064622 -0.104598,0.153909 -0.104598,0.252528 0,0.0986181 0.0399724,0.187906 0.104594,0.252528 0.064622,0.064622 0.153909,0.104594 0.252531,0.104594 0.098622,0 0.187909,-0.0399724 0.252528,-0.104594 0.064622,-0.0646181 0.104594,-0.153906 0.104594,-0.252528 0,-0.0986181 -0.0399724,-0.187909 -0.104594,-0.252531z"/><path class="fil0" d="M2.09299 4.78036c0.043126,0 0.0821811,0.0174882 0.110445,0.045752 0.0282638,0.0282638 0.045752,0.0673189 0.045752,0.110445 0,0.043126 -0.0174882,0.0821811 -0.045752,0.110445 -0.0282638,0.0282638 -0.0673189,0.045752 -0.110445,0.045752 -0.043126,0 -0.0821811,-0.0174882 -0.110445,-0.045752 -0.0282638,-0.0282638 -0.045752,-0.0673189 -0.045752,-0.110445 0,-0.043126 0.0174882,-0.0821811 0.045752,-0.110445 0.0282638,-0.0282638 0.0673189,-0.045752 0.110445,-0.045752zm0.0350276 0.121169c-0.00895669,-0.00895669 -0.0213465,-0.0145 -0.0350276,-0.0145 -0.0136811,0 -0.0260709,0.00554331 -0.0350276,0.0145 -0.00895669,0.00895669 -0.0145,0.0213465 -0.0145,0.0350276 0,0.0136811 0.00554331,0.0260709 0.0145,0.0350276 0.00895669,0.00895669 0.0213465,0.0145 0.0350276,0.0145 0.0136811,0 0.0260709,-0.00554331 0.0350276,-0.0145 0.00895669,-0.00895669 0.0145,-0.0213465 0.0145,-0.0350276 0,-0.0136811 -0.00554331,-0.0260709 -0.0145,-0.0350276z"/><path class="fil0" d="M4.57086 4.78036c0.043126,0 0.0821811,0.0174882 0.110445,0.045752 0.0282638,0.0282638 0.045752,0.0673189 0.045752,0.110445 0,0.043126 -0.0174882,0.0821811 -0.045752,0.110445 -0.0282638,0.0282638 -0.0673189,0.045752 -0.110445,0.045752 -0.043126,0 -0.0821811,-0.0174882 -0.110445,-0.045752 -0.0282638,-0.0282638 -0.045752,-0.0673189 -0.045752,-0.110445 0,-0.043126 0.0174882,-0.0821811 0.045752,-0.110445 0.0282638,-0.0282638 0.0673189,-0.045752 0.110445,-0.045752zm0.0350276 0.121169c-0.00895669,-0.00895669 -0.0213465,-0.0145 -0.0350276,-0.0145 -0.0136811,0 -0.0260709,0.00554331 -0.0350276,0.0145 -0.00895669,0.00895669 -0.0145,0.0213465 -0.0145,0.0350276 0,0.0136811 0.00554331,0.0260709 0.0145,0.0350276 0.00895669,0.00895669 0.0213465,0.0145 0.0350276,0.0145 0.0136811,0 0.0260709,-0.00554331 0.0350276,-0.0145 0.00895669,-0.00895669 0.0145,-0.0213465 0.0145,-0.0350276 0,-0.0136811 -0.00554331,-0.0260709 -0.0145,-0.0350276z"/></g></g><rect class="fil1" width="6.82666" height="6.82666"/><text x="0" y="21.82666" fill="#000000" font-size="5px" font-weight="bold" font-family="'Helvetica Neue', Helvetica, Arial-Unicode, Arial, Sans-serif">Created by Graphic Nehar</text><text x="0" y="26.82666" fill="#000000" font-size="5px" font-weight="bold" font-family="'Helvetica Neue', Helvetica, Arial-Unicode, Arial, Sans-serif">from the Noun Project</text></svg>